<?xml version="1.0" encoding="utf-8"?>
<!-- Generator: Adobe Illustrator 16.0.4, SVG Export Plug-In . SVG Version: 6.00 Build 0)  -->
<!DOCTYPE svg PUBLIC "-//W3C//DTD SVG 1.1//EN" "http://www.w3.org/Graphics/SVG/1.1/DTD/svg11.dtd">
<svg version="1.1" id="Laag_1" xmlns="http://www.w3.org/2000/svg" xmlns:xlink="http://www.w3.org/1999/xlink" x="0px" y="0px"
	 width="50px" height="50px" viewBox="0 0 50 50" enable-background="new 0 0 50 50" xml:space="preserve">
<g>
	<path fill="#FFED47" d="M4.688,38.078c-1.671,2.846-0.339,5.174,2.961,5.174h34.701c3.3,0,4.633-2.328,2.961-5.174L28.039,8.671
		c-1.672-2.845-4.407-2.845-6.078,0L4.688,38.078z"/>
</g>
<g>
	<path d="M24.537,35.548c0-0.39,0.143-0.67,0.429-0.839c0.312-0.182,0.663-0.272,1.052-0.272c0.13,0,0.247,0.039,0.352,0.117
		c0.104,0.078,0.194,0.172,0.272,0.282s0.134,0.228,0.166,0.352c0.032,0.123,0.049,0.243,0.049,0.36c0,0.143-0.052,0.272-0.156,0.39
		c-0.104,0.117-0.228,0.221-0.37,0.312c-0.144,0.091-0.299,0.159-0.468,0.204c-0.169,0.046-0.312,0.068-0.429,0.068
		c-0.325,0-0.556-0.088-0.692-0.264C24.605,36.084,24.537,35.847,24.537,35.548z M25.142,31.161
		c-0.052-0.338-0.088-0.796-0.107-1.374c-0.019-0.579-0.032-1.216-0.039-1.911c-0.007-0.695-0.007-1.423,0-2.183
		c0.006-0.76,0.01-1.488,0.01-2.184s0-1.329,0-1.901c0-0.598-0.013-1.066-0.039-1.404l0.955-0.156l0.02,0.351
		c0,0.234,0.003,0.539,0.01,0.916s0.013,0.812,0.02,1.306c0.006,0.494,0.016,1.007,0.029,1.541c0.013,0.533,0.019,1.069,0.019,1.608
		c0,0.54,0.007,1.043,0.02,1.511c0.014,0.469,0.023,0.881,0.029,1.238c0.007,0.357,0.017,0.614,0.029,0.771c0,0.025,0,0.074,0,0.146
		c0,0.072,0.004,0.156,0.01,0.254c0.007,0.098,0.01,0.191,0.01,0.282s0,0.163,0,0.215c0,0.104,0.004,0.225,0.01,0.36
		c0.007,0.137,0,0.27-0.02,0.399c-0.02,0.131-0.062,0.237-0.126,0.322c-0.065,0.084-0.175,0.127-0.332,0.127
		c-0.091,0-0.188-0.007-0.292-0.02C25.252,31.362,25.181,31.291,25.142,31.161z"/>
</g>
</svg>
