<?xml version="1.0" encoding="utf-8"?>
<!-- Generator: Adobe Illustrator 16.0.4, SVG Export Plug-In . SVG Version: 6.00 Build 0)  -->
<!DOCTYPE svg PUBLIC "-//W3C//DTD SVG 1.1//EN" "http://www.w3.org/Graphics/SVG/1.1/DTD/svg11.dtd">
<svg version="1.1" id="Laag_1" xmlns="http://www.w3.org/2000/svg" xmlns:xlink="http://www.w3.org/1999/xlink" x="0px" y="0px"
	 width="50px" height="50px" viewBox="0 0 50 50" enable-background="new 0 0 50 50" xml:space="preserve">
<g enable-background="new    ">
	<path fill="#19CC61" d="M44.107,16.173c-0.504,0.854-1.162,1.823-1.998,2.904c-0.838,1.081-1.735,2.218-2.687,3.411
		c-0.963,1.195-1.903,2.332-2.834,3.411c-0.927,1.082-1.772,2.059-2.549,2.929c-0.771,0.868-1.341,1.515-1.714,1.935
		c-0.247,0.324-0.743,0.871-1.484,1.648c-0.742,0.77-1.544,1.601-2.408,2.488c-0.867,0.891-1.701,1.729-2.502,2.518
		c-0.808,0.791-1.366,1.345-1.676,1.67c-0.062,0-0.246,0.006-0.556,0.021c-0.308,0.021-0.525,0.025-0.649,0.025
		c-0.988-0.258-2.007-0.84-3.059-1.74c-1.052-0.904-2.104-1.998-3.152-3.291c-1.05-1.291-2.022-2.722-2.921-4.307
		c-0.899-1.582-1.701-3.154-2.412-4.719c-0.708-1.562-1.283-3.086-1.716-4.573c-0.432-1.484-0.68-2.766-0.742-3.845
		c-0.06-1.081,0.093-1.92,0.467-2.517c0.37-0.596,1.019-0.831,1.945-0.701c0.494-0.097,0.97,0.105,1.433,0.604
		c0.469,0.5,0.946,1.203,1.443,2.104c0.492,0.905,0.986,1.945,1.48,3.122c0.496,1.176,0.976,2.404,1.439,3.677
		c0.462,1.272,0.91,2.53,1.344,3.776c0.432,1.236,0.88,2.383,1.344,3.432c0.465,1.053,0.895,1.931,1.298,2.638
		c0.401,0.708,0.791,1.166,1.161,1.354c0.185-0.192,0.525-0.605,1.017-1.233c0.495-0.628,1.113-1.362,1.858-2.202
		c0.74-0.84,1.498-1.725,2.27-2.637c0.772-0.92,1.517-1.803,2.224-2.636c0.709-0.84,1.345-1.564,1.9-2.179
		c0.559-0.612,0.93-1.015,1.114-1.209c0.491-0.517,1.065-1.251,1.716-2.202c0.648-0.952,1.393-1.902,2.223-2.856
		c0.836-0.949,1.75-1.78,2.736-2.491c0.991-0.708,2.068-1.063,3.246-1.063c0.496,0,0.977,0.041,1.438,0.12
		c0.461,0.08,0.692,0.298,0.692,0.653C44.844,14.666,44.598,15.319,44.107,16.173z"/>
</g>
</svg>
