<?xml version="1.0" encoding="utf-8"?>
<!-- Generator: Adobe Illustrator 16.0.4, SVG Export Plug-In . SVG Version: 6.00 Build 0)  -->
<!DOCTYPE svg PUBLIC "-//W3C//DTD SVG 1.1//EN" "http://www.w3.org/Graphics/SVG/1.1/DTD/svg11.dtd">
<svg version="1.1" id="Laag_1" xmlns="http://www.w3.org/2000/svg" xmlns:xlink="http://www.w3.org/1999/xlink" x="0px" y="0px"
	 width="50px" height="50px" viewBox="0 0 50 50" enable-background="new 0 0 50 50" xml:space="preserve">
<path opacity="0.05" enable-background="new    " d="M24.62,4.611c-11.276,0-20.418,9.142-20.418,20.418
	c0,11.278,9.142,20.419,20.418,20.419s20.419-9.142,20.419-20.419C45.039,13.752,35.896,4.611,24.62,4.611L24.62,4.611z"/>
<g opacity="0.05" enable-background="new    ">
	<path d="M34.498,21.058c-0.26,0.441-0.6,0.941-1.031,1.499c-0.433,0.558-0.896,1.145-1.387,1.761
		c-0.497,0.617-0.982,1.204-1.463,1.76c-0.479,0.559-0.915,1.062-1.315,1.512c-0.397,0.448-0.692,0.782-0.885,0.999
		c-0.128,0.167-0.384,0.449-0.767,0.851c-0.383,0.397-0.797,0.826-1.243,1.285c-0.447,0.459-0.878,0.892-1.292,1.299
		c-0.416,0.408-0.704,0.694-0.864,0.862c-0.032,0-0.127,0.003-0.287,0.011c-0.159,0.011-0.271,0.014-0.335,0.014
		c-0.51-0.133-1.036-0.434-1.579-0.898c-0.543-0.467-1.086-1.031-1.627-1.699c-0.542-0.666-1.044-1.404-1.508-2.223
		c-0.464-0.816-0.878-1.628-1.245-2.436c-0.366-0.806-0.662-1.593-0.886-2.36c-0.223-0.766-0.351-1.428-0.383-1.985
		c-0.031-0.558,0.048-0.991,0.241-1.299c0.191-0.308,0.526-0.429,1.004-0.362c0.255-0.05,0.501,0.054,0.74,0.312
		c0.242,0.258,0.488,0.621,0.745,1.086c0.254,0.467,0.509,1.004,0.764,1.611c0.256,0.607,0.504,1.241,0.743,1.898
		c0.239,0.657,0.47,1.306,0.694,1.949c0.223,0.639,0.454,1.23,0.694,1.771c0.24,0.543,0.462,0.996,0.67,1.361
		c0.207,0.365,0.408,0.602,0.599,0.699c0.095-0.1,0.271-0.312,0.525-0.637c0.255-0.324,0.574-0.703,0.959-1.137
		c0.382-0.434,0.773-0.89,1.171-1.361c0.399-0.475,0.782-0.93,1.147-1.36c0.366-0.434,0.694-0.808,0.981-1.125
		c0.288-0.316,0.479-0.524,0.575-0.624c0.254-0.267,0.55-0.646,0.886-1.137c0.335-0.491,0.719-0.982,1.147-1.474
		c0.431-0.49,0.903-0.919,1.412-1.286c0.512-0.366,1.068-0.549,1.676-0.549c0.256,0,0.504,0.021,0.742,0.062
		c0.237,0.041,0.357,0.154,0.357,0.337C34.878,20.28,34.751,20.617,34.498,21.058z"/>
</g>
</svg>
