<?xml version="1.0" encoding="utf-8"?>
<!-- Generator: Adobe Illustrator 16.0.4, SVG Export Plug-In . SVG Version: 6.00 Build 0)  -->
<!DOCTYPE svg PUBLIC "-//W3C//DTD SVG 1.1//EN" "http://www.w3.org/Graphics/SVG/1.1/DTD/svg11.dtd">
<svg version="1.1" id="Laag_1" xmlns="http://www.w3.org/2000/svg" xmlns:xlink="http://www.w3.org/1999/xlink" x="0px" y="0px"
	 width="50px" height="50px" viewBox="0 0 50 50" enable-background="new 0 0 50 50" xml:space="preserve">
<g opacity="0.1" enable-background="new    ">
	<path d="M44.108,16.173c-0.504,0.854-1.162,1.823-1.998,2.904c-0.838,1.081-1.736,2.218-2.687,3.411
		c-0.963,1.195-1.903,2.332-2.834,3.41c-0.927,1.082-1.772,2.059-2.549,2.929c-0.77,0.868-1.341,1.515-1.714,1.935
		c-0.247,0.324-0.743,0.871-1.484,1.648c-0.742,0.77-1.544,1.601-2.409,2.489c-0.866,0.89-1.7,1.728-2.502,2.517
		c-0.807,0.791-1.365,1.345-1.675,1.67c-0.062,0-0.246,0.006-0.556,0.021c-0.308,0.021-0.525,0.026-0.649,0.026
		c-0.988-0.258-2.007-0.84-3.059-1.74c-1.052-0.904-2.104-1.998-3.152-3.292c-1.05-1.29-2.022-2.721-2.921-4.306
		c-0.899-1.582-1.701-3.154-2.412-4.719c-0.708-1.562-1.283-3.086-1.716-4.573c-0.432-1.484-0.68-2.766-0.742-3.845
		c-0.06-1.081,0.093-1.92,0.467-2.517c0.37-0.596,1.019-0.831,1.945-0.701c0.494-0.097,0.97,0.105,1.433,0.604
		c0.469,0.5,0.946,1.203,1.443,2.104c0.492,0.905,0.986,1.945,1.48,3.122c0.496,1.176,0.976,2.404,1.439,3.677
		c0.462,1.272,0.91,2.53,1.344,3.775c0.432,1.237,0.88,2.384,1.344,3.433c0.465,1.052,0.895,1.93,1.298,2.637
		c0.401,0.708,0.791,1.166,1.161,1.354c0.185-0.192,0.525-0.605,1.017-1.233c0.495-0.628,1.113-1.362,1.858-2.202
		c0.74-0.84,1.498-1.724,2.27-2.637c0.773-0.92,1.516-1.802,2.223-2.636c0.71-0.84,1.345-1.564,1.901-2.179
		c0.559-0.612,0.929-1.015,1.114-1.209c0.492-0.517,1.065-1.251,1.716-2.202c0.649-0.952,1.393-1.902,2.223-2.856
		c0.835-0.949,1.75-1.78,2.736-2.491c0.991-0.708,2.069-1.063,3.246-1.063c0.496,0,0.977,0.041,1.438,0.12
		c0.46,0.08,0.692,0.298,0.692,0.653C44.844,14.666,44.598,15.319,44.108,16.173z"/>
</g>
</svg>
